<?xml version="1.0" encoding="utf-8"?>
<!-- Generator: Adobe Illustrator 19.1.0, SVG Export Plug-In . SVG Version: 6.00 Build 0)  -->
<svg version="1.1" id="Layer_1" xmlns="http://www.w3.org/2000/svg" xmlns:xlink="http://www.w3.org/1999/xlink" x="0px" y="0px"
	 viewBox="-289 411.7 420.3 178.3" enable-background="new -289 411.7 420.3 178.3" xml:space="preserve">
<g>
	<g>
		<g>
			<g>
				<path fill="#0A2850" d="M-51.5,423c4.7,0,7.4,0.8,7.4,0.8v71.1c0,0-2.7,0.8-6.7,0.8c-4.1,0-6.8-0.8-6.8-0.8l-0.7-4
					c-2.7,3.6-6.9,5.7-13.1,5.7c-10.8,0-18.1-6.7-18.1-26.4c0-19.8,6.9-26.7,18.1-26.7c5.6,0,9.6,1.7,12.3,4.9v-24.6
					C-59.1,423.8-56.3,423-51.5,423z M-66.1,455c-5.2,0-7.8,2.8-7.8,15.1c0,11.9,2.6,14.8,7.8,14.8c4.4,0,6.9-3.5,7-8.1v-13.7
					C-59.3,458.4-61.8,455-66.1,455z"/>
				<path fill="#0A2850" d="M-14.2,443.4c14.5,0,20.4,5.7,20.4,17.9v33.5c0,0-2.1,0.8-6.2,0.8c-3.9,0-6.2-0.8-6.2-0.8l-1.7-4.7
					c-2.1,4.3-6.8,6.5-13.6,6.5c-9.6,0-15-5.5-15-16.8c0-11,6.7-15.6,19.4-15.6c2.9,0,5.9,0.2,8.4,0.4v-1.5c0-4.4-2-7.4-7.9-7.4
					c-6,0-11.8,2.2-11.8,2.2s-1.9-1.5-3.2-4.6c-1.4-3.1-1-5.9-1-5.9S-24.9,443.4-14.2,443.4z M-14.8,473.2c-4.3,0-6.7,1.8-6.7,6.6
					c0,5,2,6.8,5.6,6.8c5.3,0,7.3-5,7.3-10.2v-2.9C-10.6,473.3-12.7,473.2-14.8,473.2z"/>
				<path fill="#0A2850" d="M45.5,501.1c-3.7,12.1-8.2,18.7-20.9,18.7c-4.2,0-7.4-1.2-7.4-1.2s-0.9-2.2-0.9-5.3
					c0-3.1,1.1-5.6,1.1-5.6s2.3,0.4,4.3,0.4c4.8,0,7.4-0.9,10.1-9.4l1-3.1c-1.6,0-3.2-0.3-4.6-0.8L11.3,445c0,0,2.9-0.8,7.8-0.8
					c5.1,0,7.6,0.8,7.6,0.8l7.8,22.9c2.5,7.5,3.1,13.4,3.1,13.4H38c0,0,0.7-5.8,2.9-13.4l6.9-22.9c0,0,2.5-0.8,7.2-0.8
					c4.5,0,7.3,0.8,7.3,0.8L45.5,501.1z"/>
			</g>
		</g>
		<circle fill="#0A2850" cx="-111.3" cy="487.7" r="8.8"/>
	</g>
	<g>
		<circle fill="#FFFFFF" cx="-111.3" cy="454.9" r="8.8"/>
		<path fill="#FFFFFF" d="M-198.9,476.9c0,6.7,2.7,8.2,7.8,8.2c1.9,0,3.9-0.4,3.9-0.4s1.2,2.2,1.2,5.9c0,3-0.7,4.8-0.7,4.8
			c-2.8,0.8-5.8,1.1-8.7,1.1c-13.1,0-18.4-5.8-18.4-19.3v-22h-7c0,0-0.7-2-0.7-5.2c0-3.6,0.7-5.4,0.7-5.4h7V436
			c3.8-2,9.7-2.9,14.9-2.4v11h10.5c0,0,0.7,1.9,0.7,5.3c0,3.1-0.7,5.3-0.7,5.3h-10.5V476.9z"/>
		<path fill="#FFFFFF" d="M-157.9,443.4c14.3,0,23.3,7.3,23.3,26.5c0,19.3-9.1,26.6-23.3,26.6s-23.4-7.4-23.4-26.6
			C-181.4,450.7-172.2,443.4-157.9,443.4z M-157.9,454.7c-5,0-7.9,3-7.9,15.2c0,12.2,2.9,15.4,7.9,15.4c4.9,0,7.8-3.2,7.8-15.4
			C-150.1,457.7-153,454.7-157.9,454.7z"/>
	</g>
</g>
<g enable-background="new    ">
	<path fill="#0A2850" d="M-279.5,575c0,0-0.6,0.2-1.6,0.2c-1.2,0-1.7-0.2-1.7-0.2v-23.5h8.6c4.4,0,7.1,2.9,7.1,7.3
		c0,4.3-2.7,7.2-7.1,7.2h-5.2V575z M-274.7,563.2c2.6,0,4-1.6,4-4.4c0-2.8-1.4-4.4-4-4.4h-4.8v8.9H-274.7z"/>
	<path fill="#0A2850" d="M-260.1,575c0,0-0.6,0.2-1.6,0.2c-1.2,0-1.6-0.2-1.6-0.2v-24.3c0,0,0.5-0.2,1.6-0.2c1.1,0,1.6,0.2,1.6,0.2
		V575z"/>
	<path fill="#0A2850" d="M-249.2,557.6c4.8,0,6.3,2.1,6.3,6.4v11c0,0-0.4,0.2-1.3,0.2c-0.8,0-1.3-0.2-1.3-0.2l-0.5-2.1
		c-0.9,1.7-2.7,2.7-5.2,2.7c-3.1,0-5.1-1.8-5.1-5.5c0-3.6,2.2-5.2,6.3-5.2c1.5,0,2.9,0.1,3.8,0.2v-1.2c0-2.2-0.9-3.5-3.4-3.5
		c-2.3,0-4.4,0.8-4.4,0.8c0,0-0.4-0.3-0.8-1c-0.3-0.7-0.2-1.4-0.2-1.4C-254.9,558.8-252.4,557.6-249.2,557.6z M-249.5,567.1
		c-2.2,0-3.4,0.9-3.4,2.9c0,2.1,1.1,3,2.9,3c2.6,0,3.8-2.2,3.8-4.5v-1.2C-246.9,567.3-248.2,567.1-249.5,567.1z"/>
	<path fill="#0A2850" d="M-224.8,575c0,0-0.6,0.2-1.6,0.2c-1.1,0-1.6-0.2-1.6-0.2v-11.9c0-1.8-1-2.9-3.1-2.9c-1.5,0-2.9,0.8-3.7,2.1
		V575c0,0-0.6,0.2-1.6,0.2c-1.2,0-1.6-0.2-1.6-0.2v-16.9c0,0,0.5-0.2,1.6-0.2c1.1,0,1.6,0.2,1.6,0.2v1.5c1.2-1.4,2.9-2.1,5-2.1
		c3.3,0,5.1,2,5.1,5V575z"/>
	<path fill="#0A2850" d="M-205.1,551.5c1.3,0,2,0.2,2,0.2l8.3,23.3c0,0-0.6,0.2-1.8,0.2c-1.1,0-1.6-0.2-1.6-0.2l-2-5.8h-9.8
		l-2.1,5.8c0,0-0.6,0.2-1.6,0.2c-1,0-1.5-0.2-1.5-0.2l8.3-23.3C-207.1,551.7-206.3,551.5-205.1,551.5z M-205.3,555.2
		c0,0-0.3,1.3-0.9,3l-3,8.3h7.8l-3-8.3C-204.9,556.4-205.2,555.2-205.3,555.2L-205.3,555.2z"/>
	<path fill="#0A2850" d="M-178.5,575c0,0-0.6,0.2-1.6,0.2c-1.1,0-1.6-0.2-1.6-0.2v-11.9c0-1.8-1-2.9-3.1-2.9c-1.5,0-2.9,0.8-3.7,2.1
		V575c0,0-0.6,0.2-1.6,0.2c-1.2,0-1.6-0.2-1.6-0.2v-24.3c0,0,0.5-0.2,1.6-0.2c1.1,0,1.6,0.2,1.6,0.2v8.9c1.2-1.4,2.9-2.1,5-2.1
		c3.3,0,5.1,2,5.1,5V575z"/>
	<path fill="#0A2850" d="M-171.2,567.6c0.3,3.9,1.8,5.2,4.6,5.2c2.3,0,3.9-1,3.9-1c0.6,0.5,1,1.4,1.1,2.4c0,0-1.9,1.4-5.5,1.4
		c-5.1,0-7.4-3.1-7.4-9.1c0-6.2,2.9-8.9,7.3-8.9c4.1,0,6.5,2.2,6.5,6.6c0,2.1-0.4,3.4-0.4,3.4H-171.2z M-167.3,560.2
		c-2.1,0-3.7,1.4-3.9,5.1h7.1c0-0.3,0.1-0.8,0.1-1.5C-164,561.8-164.8,560.2-167.3,560.2z"/>
	<path fill="#0A2850" d="M-150.9,557.6c4.8,0,6.3,2.1,6.3,6.4v11c0,0-0.4,0.2-1.3,0.2c-0.8,0-1.3-0.2-1.3-0.2l-0.5-2.1
		c-0.9,1.7-2.7,2.7-5.2,2.7c-3.1,0-5.1-1.8-5.1-5.5c0-3.6,2.2-5.2,6.3-5.2c1.5,0,2.9,0.1,3.8,0.2v-1.2c0-2.2-0.9-3.5-3.4-3.5
		c-2.3,0-4.4,0.8-4.4,0.8c0,0-0.4-0.3-0.8-1c-0.3-0.7-0.2-1.4-0.2-1.4C-156.7,558.8-154.2,557.6-150.9,557.6z M-151.2,567.1
		c-2.2,0-3.4,0.9-3.4,2.9c0,2.1,1.1,3,2.9,3c2.6,0,3.8-2.2,3.8-4.5v-1.2C-148.6,567.3-150,567.1-151.2,567.1z"/>
	<path fill="#0A2850" d="M-128,550.5c1.1,0,1.6,0.2,1.6,0.2V575c0,0-0.6,0.2-1.4,0.2c-0.8,0-1.5-0.2-1.5-0.2l-0.2-1.8
		c-1,1.5-2.5,2.3-4.9,2.3c-3.8,0-6.2-2.3-6.2-9s2.4-9,6.2-9c2.3,0,3.8,0.8,4.7,2.1v-9C-129.7,550.8-129.1,550.5-128,550.5z
		 M-133.3,560.3c-2.6,0-4,1.4-4,6.3c0,4.9,1.3,6.3,4,6.3c2.3,0,3.6-1.9,3.6-4.2v-4.3C-129.7,562.2-131,560.3-133.3,560.3z"/>
	<path fill="#0A2850" d="M-122,578.5c0,0,1.1-1.2,1.2-3.3c-0.8,0-1.1-0.2-1.1-0.2v-3.1c0,0,0.6-0.2,1.7-0.2c1.1,0,1.7,0.2,1.7,0.2
		v2.1c0,3.6-2.4,5.4-2.4,5.4L-122,578.5z"/>
	<path fill="#0A2850" d="M-96.8,551.2c3.9,0,6.2,1.1,6.2,1.1c0,0.9-0.4,1.9-1,2.5c0,0-2.2-0.8-4.8-0.8c-4,0-7,2-7,9.4s3,9.3,7,9.3
		c1.5,0,2.7-0.2,3-0.3v-7.6h-4.8c0,0-0.3-0.5-0.3-1.4c0-0.9,0.3-1.4,0.3-1.4h7.9v12.4c0,0-2.4,1.1-6.5,1.1
		c-6.6,0-10.1-4.2-10.1-12.2C-106.9,555.4-103.4,551.2-96.8,551.2z"/>
	<path fill="#0A2850" d="M-83.1,567.6c0.3,3.9,1.8,5.2,4.6,5.2c2.3,0,3.9-1,3.9-1c0.6,0.5,1,1.4,1.1,2.4c0,0-1.9,1.4-5.5,1.4
		c-5.1,0-7.4-3.1-7.4-9.1c0-6.2,2.9-8.9,7.3-8.9c4.1,0,6.5,2.2,6.5,6.6c0,2.1-0.4,3.4-0.4,3.4H-83.1z M-79.1,560.2
		c-2.1,0-3.7,1.4-3.9,5.1h7.1c0-0.3,0.1-0.8,0.1-1.5C-75.9,561.8-76.7,560.2-79.1,560.2z"/>
	<path fill="#0A2850" d="M-64.3,569c0,3,1,3.9,3.3,3.9c0.7,0,1.4-0.1,1.4-0.1s0.2,0.6,0.2,1.3c0,0.8-0.2,1.2-0.2,1.2
		c-0.6,0.2-1.5,0.3-2.4,0.3c-4.1,0-5.7-2.2-5.7-6.4v-8.8h-2.5c0,0-0.2-0.5-0.2-1.2c0-0.8,0.2-1.3,0.2-1.3h2.5v-3
		c0.9-0.5,2.1-0.8,3.3-0.7v3.7h4.3c0,0,0.2,0.4,0.2,1.2c0,0.8-0.2,1.3-0.2,1.3h-4.3V569z"/>
	<path fill="#0A2850" d="M-35.1,551.5c0,0,0.3,0.6,0.3,1.4c0,0.9-0.3,1.5-0.3,1.5h-6.1V575c0,0-0.6,0.2-1.7,0.2
		c-1.2,0-1.7-0.2-1.7-0.2v-20.6h-6.3c0,0-0.3-0.6-0.3-1.5c0-0.8,0.3-1.5,0.3-1.5H-35.1z"/>
	<path fill="#0A2850" d="M-18.2,575c0,0-0.6,0.2-1.6,0.2c-1.1,0-1.6-0.2-1.6-0.2v-11.9c0-1.8-1-2.9-3.1-2.9c-1.5,0-2.9,0.8-3.7,2.1
		V575c0,0-0.6,0.2-1.6,0.2c-1.2,0-1.6-0.2-1.6-0.2v-24.3c0,0,0.5-0.2,1.6-0.2c1.1,0,1.6,0.2,1.6,0.2v8.9c1.2-1.4,2.9-2.1,5-2.1
		c3.3,0,5.1,2,5.1,5V575z"/>
	<path fill="#0A2850" d="M-10.1,554.6c0,0-0.6,0.2-1.7,0.2c-1.2,0-1.7-0.2-1.7-0.2v-3.1c0,0,0.5-0.2,1.7-0.2c1.1,0,1.7,0.2,1.7,0.2
		V554.6z M-10.1,575c0,0-0.6,0.2-1.6,0.2c-1.2,0-1.6-0.2-1.6-0.2v-16.9c0,0,0.5-0.2,1.6-0.2c1.1,0,1.6,0.2,1.6,0.2V575z"/>
	<path fill="#0A2850" d="M8.1,575c0,0-0.6,0.2-1.6,0.2c-1.1,0-1.6-0.2-1.6-0.2v-11.9c0-1.8-1-2.9-3.1-2.9c-1.5,0-2.9,0.8-3.7,2.1
		V575c0,0-0.6,0.2-1.6,0.2c-1.2,0-1.6-0.2-1.6-0.2v-16.9c0,0,0.5-0.2,1.6-0.2c1.1,0,1.6,0.2,1.6,0.2v1.5c1.2-1.4,2.9-2.1,5-2.1
		c3.3,0,5.1,2,5.1,5V575z"/>
	<path fill="#0A2850" d="M26.9,557.6c0.3,0.7,0.3,1.9,0,2.6l-2.7-0.1c0.6,0.9,0.9,2.1,0.9,3.5c0,3.7-2.2,5.9-6.5,5.9
		c-0.5,0-1,0-1.5-0.1c-0.4,0.5-0.7,1.2-0.6,1.9c0.4,3,10.3-0.2,10.3,6.6c0,3.2-3.1,5.6-8.5,5.6c-4.9,0-7-1.9-7-4.6
		c0-2.5,2-4,2.9-4.5c-0.5-0.5-0.7-1.1-0.7-1.9c0-1.5,0.8-2.8,1.6-3.7c-2-0.9-3-2.8-3-5.3c0-3.7,2.2-5.9,6.5-5.9
		c1.5,0,2.7,0.3,3.7,0.8L26.9,557.6z M16.1,575.2c-0.8,0.7-1.5,1.8-1.5,3c0,1.6,1.2,2.9,3.9,2.9c3.4,0,5.2-1.2,5.2-3
		C23.7,575.5,19.1,576.2,16.1,575.2z M18.6,559.9c-2,0-3.3,1.2-3.3,3.6s1.4,3.6,3.3,3.6s3.3-1.1,3.3-3.6S20.6,559.9,18.6,559.9z"/>
	<path fill="#0A2850" d="M35.8,557.6c3.2,0,4.6,0.9,4.6,0.9c0,0.9-0.3,1.8-0.9,2.3c0,0-1.6-0.5-3.5-0.5c-2.2,0-3.4,0.8-3.4,2.4
		c0,1.6,2.1,2,4.2,2.7c2.1,0.7,4.4,1.7,4.4,4.9c0,3.3-2.1,5.3-6.3,5.3c-3.5,0-5.5-1.2-5.5-1.2c0-1,0.3-1.9,0.9-2.4
		c0,0,2.1,0.8,4.5,0.8c2,0,3.2-0.8,3.2-2.4c0-1.8-1.8-2.2-3.8-2.8c-2.2-0.7-4.7-1.6-4.7-4.9C29.6,559.7,31.6,557.6,35.8,557.6z"/>
	<path fill="#0A2850" d="M60.3,551.5c6.1,0,9.7,3.1,9.7,11.9s-3.6,11.9-9.7,11.9H53v-23.7H60.3z M60.1,572.4c3.9,0,6.3-1.6,6.3-9.1
		c0-7.4-2.5-9.1-6.3-9.1h-3.7v18.1H60.1z"/>
	<path fill="#0A2850" d="M80.9,557.6c4.5,0,7.3,2.5,7.3,9c0,6.5-2.8,9-7.3,9c-4.5,0-7.3-2.5-7.3-9C73.6,560,76.4,557.6,80.9,557.6z
		 M80.9,560.1c-2.4,0-4,1.4-4,6.5c0,5.1,1.5,6.5,4,6.5c2.4,0,3.9-1.4,3.9-6.5C84.8,561.5,83.3,560.1,80.9,560.1z"/>
	<path fill="#0A2850" d="M105.7,575c0,0-0.6,0.2-1.6,0.2c-1.1,0-1.6-0.2-1.6-0.2v-11.9c0-1.8-1-2.9-3.1-2.9c-1.5,0-2.9,0.8-3.7,2.1
		V575c0,0-0.6,0.2-1.6,0.2c-1.2,0-1.6-0.2-1.6-0.2v-16.9c0,0,0.5-0.2,1.6-0.2c1.1,0,1.6,0.2,1.6,0.2v1.5c1.2-1.4,2.9-2.1,5-2.1
		c3.3,0,5.1,2,5.1,5V575z"/>
	<path fill="#0A2850" d="M113,567.6c0.3,3.9,1.8,5.2,4.6,5.2c2.3,0,3.9-1,3.9-1c0.6,0.5,1,1.4,1.1,2.4c0,0-1.9,1.4-5.5,1.4
		c-5.1,0-7.4-3.1-7.4-9.1c0-6.2,2.9-8.9,7.3-8.9c4.1,0,6.5,2.2,6.5,6.6c0,2.1-0.4,3.4-0.4,3.4H113z M116.9,560.2
		c-2.1,0-3.7,1.4-3.9,5.1h7.1c0-0.3,0.1-0.8,0.1-1.5C120.2,561.8,119.4,560.2,116.9,560.2z"/>
</g>
</svg>
